<?xml version="1.0" encoding="UTF-8"?>
<svg version="1.1" xmlns="http://www.w3.org/2000/svg" width="1024" height="1024">
<path d="M0 0 C337.92 0 675.84 0 1024 0 C1024 337.92 1024 675.84 1024 1024 C686.08 1024 348.16 1024 0 1024 C0 686.08 0 348.16 0 0 Z " fill="#168738" transform="translate(0,0)"/>
<path d="M0 0 C1.11448013 -0.00630432 2.22896027 -0.01260864 3.37721252 -0.019104 C4.5803862 -0.01505554 5.78355988 -0.01100708 7.02319336 -0.00683594 C8.87417885 -0.00970612 8.87417885 -0.00970612 10.76255798 -0.01263428 C14.04158549 -0.01434518 17.32042389 -0.00628756 20.59942627 0.00488281 C22.61256937 0.00878816 24.62553834 0.00489323 26.63867188 -0.00195312 C30.49609539 -0.01426884 34.35325928 -0.012822 38.21069336 -0.00683594 C39.41589127 -0.0108844 40.62108917 -0.01493286 41.86280823 -0.019104 C42.9741362 -0.01279968 44.08546417 -0.00649536 45.23046875 0 C46.2118129 0.00159119 47.19315704 0.00318237 48.20423889 0.00482178 C50.55053711 0.25878906 50.55053711 0.25878906 52.55053711 2.25878906 C54.94033358 14.20777144 47.52846768 27.44939809 43.21728516 38.33251953 C40.78828212 44.50978821 38.63803099 50.75704683 36.59179688 57.07055664 C34.39560611 63.84155509 31.86315613 70.46322307 29.28100586 77.09472656 C25.12346511 87.7734364 21.04591489 98.4339868 17.52563477 109.34106445 C16.22441007 113.34152003 14.7923572 117.20885286 13.11303711 121.07128906 C10.34858305 127.43845099 8.24690823 134.00505133 6.13671875 140.61157227 C4.53193476 145.57143212 2.70123989 150.28984343 0.53027344 155.02758789 C-1.15098985 158.85641052 -2.47518211 162.80340613 -3.82446289 166.75878906 C-4.4416093 168.5400533 -5.0587974 170.32130309 -5.67602539 172.10253906 C-6.51179872 174.52869003 -7.34586286 176.95537902 -8.17504883 179.38378906 C-11.90558382 190.29925864 -16.08484331 201.01066344 -20.33984375 211.73217773 C-23.44526454 219.59461327 -26.3584155 227.49440664 -29.08886719 235.49389648 C-30.81329229 240.52333847 -32.68324893 245.46435183 -34.69946289 250.38378906 C-36.58823226 255.01400059 -38.19731893 259.5749874 -39.55883789 264.37988281 C-42.66964545 274.43543182 -46.67134728 284.24558095 -50.44091797 294.06811523 C-50.77373779 294.9354126 -51.10655762 295.80270996 -51.44946289 296.69628906 C-51.78550537 297.57196533 -52.12154785 298.4476416 -52.46777344 299.34985352 C-55.04428249 306.10317622 -57.44826009 312.90641485 -59.80493164 319.73901367 C-61.90473374 325.79197828 -64.14519984 331.78093536 -66.44946289 337.75878906 C-69.27340789 345.093537 -71.95585228 352.46024144 -74.52148438 359.88891602 C-77.68258178 369.0062142 -81.0009896 378.06553383 -84.30895996 387.13027954 C-87.23076369 395.13792266 -90.13965265 403.14847242 -92.94946289 411.19628906 C-94.46936062 415.52492764 -96.00138343 419.84723323 -97.63696289 424.13378906 C-98.06041992 425.24367188 -98.06041992 425.24367188 -98.49243164 426.37597656 C-99.6078896 428.57046936 -100.50245606 429.73566731 -102.44946289 431.25878906 C-105.01213074 431.61955261 -105.01213074 431.61955261 -108.11425781 431.59936523 C-109.27523483 431.59913864 -110.43621185 431.59891205 -111.63237 431.59867859 C-112.88556534 431.58319473 -114.13876068 431.56771088 -115.42993164 431.55175781 C-117.35462029 431.54539055 -117.35462029 431.54539055 -119.31819153 431.53889465 C-122.72632427 431.52745069 -126.13407229 431.49798802 -129.54205322 431.46478271 C-133.02090246 431.43407178 -136.49981398 431.42038717 -139.97875977 431.40527344 C-146.80248532 431.37311742 -153.62595563 431.32192682 -160.44946289 431.25878906 C-162.99682823 426.82555625 -162.48066533 423.12336711 -161.44946289 418.25878906 C-160.19603756 414.03825876 -158.67645369 409.9340749 -157.12915039 405.81347656 C-156.68253555 404.59898331 -156.23592072 403.38449005 -155.77577209 402.13319397 C-154.80932571 399.50511471 -153.83663857 396.87946727 -152.8588562 394.25558472 C-151.30046296 390.07351866 -149.755849 385.886447 -148.21337891 381.69848633 C-146.32673485 376.57857184 -144.43693276 371.45984575 -142.54316807 366.34256077 C-139.10260119 357.04383795 -135.69159234 347.73458498 -132.29711914 338.41894531 C-132.04971167 337.74003864 -131.80230419 337.06113197 -131.54739952 336.36165237 C-130.55881812 333.64865188 -129.57040776 330.93558919 -128.58227444 328.22242546 C-125.93281751 320.94786066 -123.27794926 313.67527507 -120.62133789 306.40332031 C-120.39314173 305.77866253 -120.16494556 305.15400475 -119.92983437 304.51041794 C-114.66173339 290.09150353 -109.35680195 275.68631473 -104.04122925 261.28485107 C-93.22115184 231.96493887 -82.47610378 202.61754735 -71.76196289 173.25878906 C-71.5155732 172.58363503 -71.2691835 171.90848099 -71.01532745 171.21286774 C-69.06448469 165.86709803 -67.113768 160.52128231 -65.16315079 155.1754303 C-55.79364427 129.49744235 -46.41197346 103.82407363 -36.94750977 78.1809082 C-33.53324512 68.92805938 -30.13417678 59.66978582 -26.74633789 50.40722656 C-25.52682875 47.07619224 -24.30710402 43.74523694 -23.08731079 40.41430664 C-22.29661689 38.2533621 -21.5068594 36.09207465 -20.71810913 33.93041992 C-8.3415636 0.01351435 -8.3415636 0.01351435 0 0 Z " fill="#FDFDFD" transform="translate(576.449462890625,296.7412109375)"/>
<path d="M0 0 C5.19180412 0.47289689 8.59993592 3.1682297 12.75 6.0625 C14.3577888 7.15987966 15.96726107 8.25479562 17.578125 9.34765625 C18.44630859 9.93691895 19.31449219 10.52618164 20.20898438 11.13330078 C25.25196076 14.5061662 30.38006572 17.74567602 35.5 21 C45.03564453 27.07675592 54.48927044 33.25844809 63.87158203 39.56884766 C82.82179093 52.31100464 101.9761334 64.73079689 121.2019043 77.05200195 C129.64363435 82.46873203 138.05001144 87.93722575 146.4375 93.4375 C147.72810176 94.28288823 149.01871056 95.12826572 150.30932617 95.97363281 C156.50046975 100.03141635 162.67657968 104.10904508 168.8125 108.25 C176.2407899 113.231427 183.83829427 117.93917173 191.44067383 122.64941406 C193.38262778 123.85417889 195.3214641 125.06398651 197.25683594 126.27929688 C199.04869214 127.4032736 200.84857974 128.51457426 202.65722656 129.61132812 C203.46385742 130.11599609 204.27048828 130.62066406 205.1015625 131.140625 C206.16238037 131.7907959 206.16238037 131.7907959 207.24462891 132.45410156 C210.39546575 135.22894147 210.92046914 138.15843037 211.30639648 142.2421875 C211.36384799 145.46814388 211.4167445 148.69341778 211.42553711 151.91992188 C211.4374694 153.99467911 211.48673054 156.06649129 211.53710938 158.140625 C211.54419922 159.45546875 211.55128906 160.7703125 211.55859375 162.125 C211.57877563 163.92324219 211.57877563 163.92324219 211.59936523 165.7578125 C210.7064428 170.58795911 207.93049104 172.54274809 204.14160156 175.40283203 C203.5637793 175.76747559 202.98595703 176.13211914 202.390625 176.5078125 C201.72764404 176.9311084 201.06466309 177.3544043 200.3815918 177.79052734 C199.6781665 178.23090332 198.97474121 178.6712793 198.25 179.125 C196.71995241 180.09880174 195.19000727 181.07276447 193.66015625 182.046875 C192.8830127 182.53865234 192.10586914 183.03042969 191.30517578 183.53710938 C187.75065715 185.7928471 184.21946535 188.08417622 180.6875 190.375 C179.27866718 191.28649133 177.86981259 192.197949 176.4609375 193.109375 C171.57356395 196.27423938 166.69319594 199.44985176 161.8125 202.625 C153.89201632 207.7768157 145.9531819 212.89886167 138 218 C135.3398041 219.71180748 132.67973649 221.42381403 130.01977539 223.13598633 C126.04728314 225.69038808 122.06787205 228.23377846 118.0859375 230.7734375 C103.58736604 240.02256985 103.58736604 240.02256985 89.23608398 249.49731445 C76.85140211 257.81098512 64.23276366 265.77275247 51.6628418 273.80175781 C44.39346933 278.45125438 37.1579585 283.14998887 29.9375 287.875 C27.15604431 289.68877645 24.37361336 291.50103813 21.59033203 293.31201172 C19.90189951 294.41227774 18.21528166 295.5153351 16.53076172 296.62158203 C14.31912679 298.07131402 12.09872971 299.50641519 9.875 300.9375 C8.92548462 301.56664307 8.92548462 301.56664307 7.95678711 302.20849609 C4.50746527 304.40442375 2.1147302 305.50463672 -2 305 C-3.54475309 300.86604744 -4.26028016 297.4047859 -4.30639648 292.99804688 C-4.32238388 291.83664185 -4.33837128 290.67523682 -4.35484314 289.4786377 C-4.36020584 288.23787476 -4.36556854 286.99711182 -4.37109375 285.71875 C-4.38012222 284.43190308 -4.3891507 283.14505615 -4.39845276 281.81921387 C-4.41488674 279.10259499 -4.42263315 276.38609858 -4.42553711 273.66943359 C-4.4309295 270.19907659 -4.46866581 266.72987883 -4.51428127 263.25984955 C-4.55126979 259.93365546 -4.5525673 256.60764268 -4.55859375 253.28125 C-4.57812607 252.04048706 -4.59765839 250.79972412 -4.61778259 249.5213623 C-4.56754816 239.92196521 -4.56754816 239.92196521 -1.79296875 236.3918457 C0.81426983 234.15905581 3.31258084 232.22780531 6.24609375 230.44921875 C7.73774048 229.53281616 7.73774048 229.53281616 9.25952148 228.59790039 C10.30825439 227.96746826 11.3569873 227.33703613 12.4375 226.6875 C14.6253643 225.34694855 16.81286701 224.00580677 19 222.6640625 C20.04671875 222.02629883 21.0934375 221.38853516 22.171875 220.73144531 C25.45818199 218.7194901 28.70309875 216.65677481 31.9375 214.5625 C32.99453125 213.87929688 34.0515625 213.19609375 35.140625 212.4921875 C35.72521484 212.11416992 36.30980469 211.73615234 36.91210938 211.34667969 C41.66324626 208.28221862 46.42609108 205.23596519 51.1875 202.1875 C52.27087646 201.49382324 53.35425293 200.80014648 54.47045898 200.08544922 C60.96615608 195.93011 67.47489371 191.79647986 74 187.6875 C80.48137842 183.60585092 86.92673308 179.47301659 93.35058594 175.30151367 C99.46374525 171.33624044 105.60342628 167.41324623 111.75 163.5 C112.69141846 162.90010254 113.63283691 162.30020508 114.6027832 161.68212891 C115.4918335 161.11671387 116.38088379 160.55129883 117.296875 159.96875 C118.08416992 159.46794922 118.87146484 158.96714844 119.68261719 158.45117188 C122.10324989 156.93534372 124.54648711 155.46189834 127 154 C124.21949862 150.813586 120.69371169 148.80682729 117.125 146.625 C116.42592529 146.19292236 115.72685059 145.76084473 115.0065918 145.31567383 C113.48020972 144.37265856 111.95273607 143.43140841 110.42431641 142.49169922 C107.9503616 140.96945714 105.4805005 139.44077224 103.01171875 137.91015625 C96.81141752 134.06635763 90.60704409 130.22915596 84.40136719 126.39404297 C73.23231102 119.49150673 62.0828087 112.5588797 50.953125 105.59301758 C45.24766823 102.02388628 39.53423064 98.46830961 33.80859375 94.93164062 C30.38751221 92.81831977 26.96965353 90.69982217 23.55224609 88.58056641 C21.81166385 87.50265083 20.06974336 86.42689395 18.32666016 85.35302734 C15.71367853 83.74185517 13.10634637 82.12187786 10.5 80.5 C9.7164917 80.01958252 8.9329834 79.53916504 8.12573242 79.04418945 C-2.12695661 72.63273448 -2.12695661 72.63273448 -3.61886597 68.13375854 C-4.02460236 65.862265 -4.12705262 63.76092728 -4.12939453 61.45361328 C-4.13254669 60.55812775 -4.13569885 59.66264221 -4.13894653 58.74002075 C-4.1369223 57.77651703 -4.13489807 56.81301331 -4.1328125 55.8203125 C-4.13376923 54.81596161 -4.13472595 53.81161072 -4.13571167 52.77682495 C-4.13639227 50.64678892 -4.13454637 48.5167508 -4.13037109 46.38671875 C-4.12507711 43.17182567 -4.13029095 39.95707591 -4.13671875 36.7421875 C-4.15281008 6.08939689 -4.15281008 6.08939689 0 0 Z " fill="#FDFEFE" transform="translate(645,358)"/>
<path d="M0 0 C1.86230469 0.69311523 1.86230469 0.69311523 2.86230469 1.69311523 C4.01055608 8.53724421 4.03960239 15.33269479 4.06542969 22.25952148 C4.07112976 23.45238266 4.07682983 24.64524384 4.08270264 25.87425232 C4.0921136 28.38637413 4.09867101 30.89850807 4.10253906 33.41064453 C4.11228168 37.2465554 4.14335778 41.08193838 4.17480469 44.91772461 C4.18133214 47.36498707 4.18658362 49.81225334 4.19042969 52.25952148 C4.20277649 53.40135391 4.21512329 54.54318634 4.22784424 55.71961975 C4.2089699 62.47913619 4.10867701 68.41820338 -0.91503906 73.48608398 C-1.62789062 73.9462793 -2.34074219 74.40647461 -3.07519531 74.88061523 C-3.96335937 75.4594043 -4.85152344 76.03819336 -5.76660156 76.63452148 C-10.86956316 79.7506985 -15.99685052 82.8252606 -21.13891602 85.87646484 C-27.10769437 89.4302315 -32.96023071 93.12463563 -38.76269531 96.94311523 C-46.52842125 102.05045113 -54.39651056 106.96779375 -62.32519531 111.81811523 C-70.18477022 116.62717279 -77.99704312 121.4851536 -85.70849609 126.52807617 C-94.883643 132.51313652 -104.20224206 138.2745097 -113.50927734 144.05151367 C-115.19907229 145.10688997 -116.88291271 146.17189374 -118.55908203 147.2487793 C-123.93374679 150.69311523 -123.93374679 150.69311523 -126.13769531 150.69311523 C-126.13769531 151.35311523 -126.13769531 152.01311523 -126.13769531 152.69311523 C-125.48671875 152.91870117 -124.83574219 153.14428711 -124.16503906 153.37670898 C-120.10504223 155.14215277 -116.45704897 157.42430905 -112.70019531 159.75561523 C-111.90250732 160.24731201 -111.10481934 160.73900879 -110.28295898 161.24560547 C-101.46721198 166.69650972 -92.7306527 172.25488094 -84.14770508 178.06616211 C-76.0089857 183.56648681 -67.66057172 188.69902244 -59.27648926 193.81506348 C-52.10113271 198.19771698 -45.10115439 202.6807108 -38.25488281 207.56030273 C-34.34486766 210.23557626 -30.31778437 212.68291454 -26.26269531 215.13061523 C-20.37308138 218.68696159 -14.55093753 222.31512252 -8.82519531 226.13061523 C-8.22143066 226.53143311 -7.61766602 226.93225098 -6.99560547 227.34521484 C-5.36325801 228.44201342 -3.74983567 229.56682539 -2.13769531 230.69311523 C-1.19539062 231.3234668 -0.25308594 231.95381836 0.71777344 232.60327148 C4.49584043 236.28499433 3.91994284 241.10237594 4.00756836 246.12841797 C4.02088098 248.29448729 4.02809472 250.46059985 4.03027344 252.62670898 C4.03360184 253.77800797 4.03693024 254.92930695 4.0403595 256.11549377 C4.04541225 258.54541628 4.04776833 260.97534569 4.04760742 263.40527344 C4.04979487 267.11396747 4.06797108 270.82236437 4.08691406 274.53100586 C4.08984816 276.89623922 4.09183285 279.26147399 4.09277344 281.62670898 C4.09995895 282.73106796 4.10714447 283.83542694 4.11454773 284.97325134 C4.07463467 298.48078525 4.07463467 298.48078525 0.86230469 301.69311523 C-4.04516579 302.16558861 -6.56038421 301.23685398 -10.60253906 298.50170898 C-11.63838135 297.81157715 -12.67422363 297.12144531 -13.74145508 296.41040039 C-14.85279263 295.65060481 -15.96403711 294.89067308 -17.07519531 294.13061523 C-18.23299683 293.35361261 -19.39178459 292.57807773 -20.55151367 291.80395508 C-22.92757801 290.21626146 -25.29927393 288.62234706 -27.66796875 287.02368164 C-32.80664946 283.56264268 -38.00432514 280.1924169 -43.20019531 276.81811523 C-45.0896311 275.58651755 -46.97895688 274.35475106 -48.86816406 273.12280273 C-55.60573102 268.73503991 -62.35551101 264.36628431 -69.109375 260.00366211 C-71.90630781 258.19649609 -74.70196346 256.38735943 -77.49755859 254.578125 C-78.9255311 253.65399906 -80.35359115 252.73000839 -81.78173828 251.80615234 C-85.22455247 249.57898114 -88.66654884 247.35057189 -92.10644531 245.11889648 C-100.47149364 239.69479723 -108.86080809 234.30998781 -117.26269531 228.94311523 C-128.41612385 221.81637255 -139.5088779 214.59983239 -150.58789062 207.3581543 C-159.13764822 201.77510692 -167.71623488 196.23740996 -176.32128906 190.73999023 C-177.41586426 190.04059326 -178.51043945 189.34119629 -179.63818359 188.62060547 C-181.77771928 187.25433703 -183.91796899 185.88918581 -186.05908203 184.52539062 C-191.2740029 181.19654818 -196.47467411 177.84583001 -201.64941406 174.45483398 C-202.60678467 173.82923584 -203.56415527 173.2036377 -204.55053711 172.55908203 C-210.89574874 167.98264978 -210.89574874 167.98264978 -211.71875 163.59619141 C-211.88042787 157.16949605 -211.88042787 157.16949605 -211.87890625 153.95849609 C-211.88763599 151.89464047 -211.96017935 149.83943345 -212.03613281 147.77709961 C-212.09306491 138.11287599 -212.09306491 138.11287599 -209.55859375 134.34643555 C-207.51811364 132.50970672 -205.49436588 131.09588289 -203.13769531 129.69311523 C-202.5321582 129.28182373 -201.92662109 128.87053223 -201.30273438 128.44677734 C-199.5293371 127.25879987 -197.72198587 126.15938693 -195.88769531 125.06811523 C-194.47259566 124.20392586 -193.05858255 123.33795544 -191.64550781 122.47045898 C-190.90848633 122.01912598 -190.17146484 121.56779297 -189.41210938 121.1027832 C-185.4901244 118.67196083 -181.62700326 116.15177672 -177.76269531 113.63061523 C-176.9408374 113.09500977 -176.11897949 112.5594043 -175.2722168 112.00756836 C-172.55952163 110.23789554 -169.84838296 108.46586148 -167.13769531 106.69311523 C-166.09661621 106.0123291 -165.05553711 105.33154297 -163.98291016 104.63012695 C-158.12162074 100.79684706 -158.12162074 100.79684706 -152.26083374 96.96279907 C-143.55632288 91.26774323 -134.83599248 85.59820402 -126.09570312 79.95825195 C-124.09494771 78.66549452 -122.09649681 77.36924235 -120.09863281 76.07202148 C-112.09798226 70.879979 -104.06727946 65.73863505 -96.01269531 60.63061523 C-89.27740135 56.35589661 -82.58223681 52.03520163 -75.96044922 47.58691406 C-59.36621488 36.44994959 -42.51688314 25.7103854 -25.58691406 15.09350586 C-23.01943521 13.48257647 -20.4535501 11.86912971 -17.88769531 10.25561523 C-17.11329102 9.77133057 -16.33888672 9.2870459 -15.54101562 8.78808594 C-12.02023609 6.57353873 -8.63525045 4.32380136 -5.34082031 1.78295898 C-2.13769531 -0.30688477 -2.13769531 -0.30688477 0 0 Z " fill="#FDFEFD" transform="translate(379.1376953125,360.306884765625)"/>
<path d="M0 0 C6.13955657 3.16128929 11.86667928 6.85613066 17.58105469 10.71679688 C23.2604207 14.53992587 29.02620773 18.21620511 34.8125 21.875 C43.90509252 27.63387549 52.89211976 33.5310729 61.82324219 39.53662109 C80.79067715 52.28794513 99.95977259 64.72031175 119.2019043 77.05200195 C127.64363435 82.46873203 136.05001144 87.93722575 144.4375 93.4375 C145.72810176 94.28288823 147.01871056 95.12826572 148.30932617 95.97363281 C154.50046975 100.03141635 160.67657968 104.10904508 166.8125 108.25 C174.2407899 113.231427 181.83829427 117.93917173 189.44067383 122.64941406 C195.36865319 126.32706102 201.22555309 130.08530453 207 134 C206.67 134.99 206.34 135.98 206 137 C205.36835937 136.52691406 204.73671875 136.05382812 204.0859375 135.56640625 C194.72624464 128.64778602 184.95803521 122.45587616 175.07861328 116.31591797 C165.96768672 110.65165338 157.04074869 104.74573898 148.14550781 98.75 C140.50864714 93.60787393 132.81260033 88.599685 124.98510742 83.75219727 C119.75264739 80.50027455 114.61943984 77.11727193 109.50610352 73.68188477 C103.0652935 69.35832245 96.53765566 65.17509235 90 61 C79.63188311 54.37868989 69.37112989 47.61173286 59.15283203 40.76171875 C49.16743191 34.07115552 39.10343066 27.51074761 29 21 C23.98270709 17.7650354 18.96876589 14.52507071 13.96289062 11.27246094 C12.06715757 10.04353548 10.16655493 8.82242712 8.265625 7.6015625 C7.16734375 6.88742187 6.0690625 6.17328125 4.9375 5.4375 C3.97714844 4.81746094 3.01679687 4.19742187 2.02734375 3.55859375 C1.02380859 2.78708984 1.02380859 2.78708984 0 2 C0 1.34 0 0.68 0 0 Z " fill="#A7A5A3" transform="translate(647,358)"/>
<path d="M0 0 C4.83611502 0.50471789 8.17688812 2.8515964 12.0625 5.5625 C12.73095947 6.01794189 13.39941895 6.47338379 14.08813477 6.94262695 C16.06330919 8.28857566 18.03207214 9.64348733 20 11 C28.94067995 17.10157824 38.08642394 22.8418231 47.28491211 28.5456543 C53.26371929 32.25929859 59.17422444 36.05022855 65 40 C64.67 40.99 64.34 41.98 64 43 C63.05253906 42.29037109 63.05253906 42.29037109 62.0859375 41.56640625 C52.72563586 34.64733602 42.95659684 28.45560656 33.0769043 22.31469727 C32.41215088 21.90147217 31.74739746 21.48824707 31.0625 21.0625 C30.39839111 20.64991943 29.73428223 20.23733887 29.05004883 19.81225586 C23.66677875 16.45235956 18.37872022 12.96244659 13.11523438 9.41845703 C9.80274415 7.19013591 6.46823149 5.02044299 3.0625 2.9375 C2.051875 2.298125 1.04125 1.65875 0 1 C0 0.67 0 0.34 0 0 Z " fill="#B0ABAB" transform="translate(789,452)"/>
<path d="M0 0 C18.48 0 36.96 0 56 0 C56.66 1.32 57.32 2.64 58 4 C57.28705276 3.67657623 56.57410553 3.35315247 55.83955383 3.01992798 C52.88475338 1.95860503 50.69266318 1.72590926 47.56713867 1.68115234 C46.50641647 1.66128265 45.44569427 1.64141296 44.35282898 1.62094116 C43.2193251 1.60938995 42.08582123 1.59783875 40.91796875 1.5859375 C39.74865311 1.56657135 38.57933746 1.5472052 37.37458801 1.5272522 C33.64563251 1.46754805 29.91664599 1.42110703 26.1875 1.375 C23.6568877 1.33681185 21.12628827 1.29775963 18.59570312 1.2578125 C12.39724989 1.16185391 6.19871887 1.07677942 0 1 C0 0.67 0 0.34 0 0 Z " fill="#BEA6B5" transform="translate(571,297)"/>
<path d="M0 0 C0.66 0.66 1.32 1.32 2 2 C1.875 5.5 1.875 5.5 1 9 C-0.98 9.99 -0.98 9.99 -3 11 C-2.01 7.37 -1.02 3.74 0 0 Z " fill="#25863F" transform="translate(516,615)"/>
<path d="M0 0 C3.37462715 0.54723683 5.08235 1.0549 8 3 C8 3.66 8 4.32 8 5 C2.25 3.375 2.25 3.375 0 0 Z " fill="#3E8850" transform="translate(340,567)"/>
</svg>
